<?xml version="1.0" standalone="no"?>
<!DOCTYPE svg PUBLIC "-//W3C//DTD SVG 20010904//EN"
 "http://www.w3.org/TR/2001/REC-SVG-20010904/DTD/svg10.dtd">
<svg version="1.0" xmlns="http://www.w3.org/2000/svg"
 width="500.000000pt" height="500.000000pt" viewBox="0 0 500.000000 500.000000"
 preserveAspectRatio="xMidYMid meet">
<metadata>
Created by potrace 1.11, written by Peter Selinger 2001-2013
</metadata>
<g transform="translate(0.000000,500.000000) scale(0.100000,-0.100000)"
fill="#000000" stroke="none">
<path d="M2265 4929 c-632 -61 -1220 -365 -1631 -842 -791 -918 -791 -2266 0
-3184 845 -982 2319 -1137 3354 -353 228 173 405 361 562 597 608 915 533
2107 -184 2940 -470 546 -1157 857 -1881 851 -77 0 -176 -4 -220 -9z m672
-1914 c147 -641 198 -887 247 -1170 l32 -190 18 110 c31 192 102 531 249 1190
l142 640 338 3 c185 1 337 1 337 -1 0 -11 -632 -2551 -636 -2559 -3 -4 -189
-8 -414 -8 -380 0 -409 1 -414 18 -5 16 -237 1071 -322 1464 -21 97 -42 172
-45 165 -4 -7 -10 -34 -14 -62 -15 -105 -79 -410 -207 -983 l-132 -592 -410 0
-411 0 -314 1258 c-173 691 -316 1265 -319 1275 -4 16 17 17 330 17 l334 0
167 -767 c170 -778 206 -952 228 -1100 7 -46 14 -82 15 -80 2 2 19 95 38 208
52 302 112 582 255 1189 l128 545 59 6 c33 3 178 5 324 5 l265 -1 132 -580z"/>
</g>
</svg>
