<?xml version="1.0" standalone="no"?>
<!DOCTYPE svg PUBLIC "-//W3C//DTD SVG 20010904//EN"
 "http://www.w3.org/TR/2001/REC-SVG-20010904/DTD/svg10.dtd">
<svg version="1.0" xmlns="http://www.w3.org/2000/svg"
 width="500.000000pt" height="500.000000pt" viewBox="0 0 500.000000 500.000000"
 preserveAspectRatio="xMidYMid meet">
<metadata>
Created by potrace 1.11, written by Peter Selinger 2001-2013
</metadata>
<g transform="translate(0.000000,500.000000) scale(0.100000,-0.100000)"
fill="#000000" stroke="none">
<path d="M2315 4914 c-496 -53 -893 -204 -1265 -480 -135 -100 -384 -349 -484
-484 -245 -330 -402 -710 -463 -1119 -24 -160 -24 -512 0 -672 61 -409 218
-789 463 -1119 100 -135 349 -384 484 -484 330 -245 710 -402 1119 -463 160
-24 512 -24 672 0 409 61 789 218 1119 463 135 100 384 349 484 484 245 330
402 710 463 1119 24 160 24 512 0 672 -61 409 -218 789 -463 1119 -100 135
-349 384 -484 484 -328 243 -710 402 -1111 461 -101 15 -452 27 -534 19z
m-128 -1229 c62 -270 83 -362 133 -575 77 -327 127 -560 152 -712 12 -76 23
-136 25 -134 2 2 21 90 43 197 21 107 52 253 69 324 16 72 75 326 130 565 56
239 103 445 106 458 l5 22 398 0 397 0 68 -257 c37 -142 175 -665 307 -1163
132 -498 240 -911 240 -917 0 -10 -71 -13 -319 -13 -176 0 -322 3 -324 8 -3 4
-30 120 -61 257 -32 138 -100 437 -153 665 -52 228 -115 510 -138 625 -24 116
-46 203 -49 195 -3 -8 -30 -136 -60 -285 -64 -316 -73 -353 -131 -585 -42
-167 -205 -855 -205 -865 0 -3 -141 -5 -313 -5 l-313 0 -138 572 c-120 500
-231 1011 -251 1161 -7 51 -25 55 -25 6 0 -17 -18 -119 -39 -227 -47 -233 -89
-414 -284 -1242 l-62 -265 -322 -3 -322 -2 14 47 c7 27 62 233 120 458 59 226
119 457 134 515 16 58 99 378 186 713 l159 607 395 -2 396 -3 32 -140z"/>
</g>
</svg>
