<?xml version="1.0" encoding="utf-8"?>
<!-- Generator: Adobe Illustrator 17.0.0, SVG Export Plug-In . SVG Version: 6.00 Build 0)  -->
<!DOCTYPE svg PUBLIC "-//W3C//DTD SVG 1.1//EN" "http://www.w3.org/Graphics/SVG/1.1/DTD/svg11.dtd">
<svg version="1.1" id="Capa_1" xmlns="http://www.w3.org/2000/svg" xmlns:xlink="http://www.w3.org/1999/xlink" x="0px" y="0px"
	 width="100px" height="100px" viewBox="0 0 100 100" enable-background="new 0 0 100 100" xml:space="preserve">
<path fill="#CCCCCC" d="M78.793,38.432c-2.427,0-4.751,0.444-6.896,1.249l-3.136-11.032l-0.915,0.281l-1.12-3.832h5.952
	c1.878,0,4.498,0.56,4.498,2.51s-1.167,2.333-3.047,2.333h-1.472v1.938h1.83c3.094,0,4.476-1.574,4.476-4.358
	c0-3.431-3.548-4.358-5.926-4.358h-8.96l1.604,6.333l-0.826,0.215l0.186,0.795l-28.429,1.839l-2.915-9.619l0.096-0.156
	c0,0,0.355-1.911,1.936-1.911s4.744-1.122,4.744-1.682c0-0.561-0.816-0.682-0.816-0.682S23.24,17.907,23.24,18.978
	c0,1.071,2.698,2.04,4.329,2.04s1.07,0.459,2.6,1.784c0.666,0.577,1.322,0.786,1.852,0.84l3.008,9.991l-4.446,7.179
	c-2.785-1.516-5.979-2.377-9.375-2.377C10.362,38.434,1.572,47.226,1.572,58.07s8.79,19.636,19.636,19.636
	c7.901,0,14.708-4.669,17.823-11.397c1.106,1.606,2.984,2.512,5.114,2.512c3.246,0,5.899-2.074,6.138-5.948h4.062
	c0.571,0,1.035-0.397,1.035-0.968s-0.464-0.968-1.035-0.968h-4.256c-0.169,0-0.433-1.035-0.781-1.567l17.96-21.019l0.891,3.175
	c-5.414,3.497-9.001,9.599-9.001,16.523c0,10.844,8.79,19.646,19.636,19.646s19.635-8.787,19.635-19.631
	C98.429,47.219,89.639,38.432,78.793,38.432z M21.207,72.268c-7.842,0-14.199-6.357-14.199-14.199S13.364,43.87,21.207,43.87
	s14.199,6.357,14.199,14.199C35.406,65.913,29.048,72.268,21.207,72.268z M40.833,57.721c-0.116-6.639-3.521-12.475-8.66-15.941
	l3.584-5.786l6.511,21.052C41.756,57.207,41.277,57.437,40.833,57.721z M46.305,57.303c-0.673-0.253-1.365-0.231-1.37-0.231
	L38.31,35.084l27.455-1.853l0.24,0.881L46.305,57.303z M78.793,72.268c-7.842,0-14.199-6.357-14.199-14.199
	S70.951,43.87,78.793,43.87s14.199,6.357,14.199,14.199C92.993,65.913,86.637,72.268,78.793,72.268z"/>
</svg>
