<?xml version="1.0" encoding="utf-8"?>
<!-- Generator: Adobe Illustrator 17.0.0, SVG Export Plug-In . SVG Version: 6.00 Build 0)  -->
<!DOCTYPE svg PUBLIC "-//W3C//DTD SVG 1.1//EN" "http://www.w3.org/Graphics/SVG/1.1/DTD/svg11.dtd">
<svg version="1.1" id="Capa_1" xmlns="http://www.w3.org/2000/svg" xmlns:xlink="http://www.w3.org/1999/xlink" x="0px" y="0px"
	 width="50px" height="50px" viewBox="0 0 50 50" style="enable-background:new 0 0 50 50;" xml:space="preserve">
<g id="cMzsll_1_">
	<g>
		<path d="M24.998,0C38.774-0.001,50.029,11.282,50,25.065C49.971,38.769,38.711,50,25,50C11.232,50-0.028,38.709,0,24.93
			C0.028,11.217,11.274,0.001,24.998,0z M31.086,35.622c-0.029-3.041,1.413-5.638,2.404-8.319c0.702-1.899,1.378-3.722,1.293-5.78
			c-0.07-1.711-0.217-3.453,0.007-5.136c0.556-4.169-1.392-8.013-5.376-9.322c-1.969-0.647-4.221-0.862-6.293-0.68
			c-5.344,0.467-8.556,4.797-7.865,10.098c0.17,1.304,0.442,2.684,0.191,3.933c-0.518,2.579,0.238,4.777,1.189,7.101
			c0.899,2.196,1.347,4.581,1.937,6.897c0.264,1.036-0.293,1.455-1.294,1.774c-3.279,1.044-6.513,2.231-9.837,3.389
			c9.245,11.409,26.75,10.703,35.055-0.017C38.714,38.253,34.987,36.968,31.086,35.622z"/>
	</g>
</g>
</svg>
